<svg width="24" height="24" viewBox="0 0 24 24" fill="none" xmlns="http://www.w3.org/2000/svg">
<path d="M0 4H24V20.0002H0V4Z" fill="#F0F0F0"/>
<path d="M0 5.99951H24V7.99934H0V5.99951ZM0 9.99968H24V11.9995H0V9.99968ZM0 13.9993H24V15.9992H0V13.9993ZM0 17.9995H24V19.9993H0V17.9995Z" fill="#D80027"/>
<path d="M0 4H12V12.6155H0V4Z" fill="#2E52B2"/>
<path d="M4.67911 7.52945L4.48584 8.12401H3.86072L4.36655 8.49127L4.17328 9.08579L4.67911 8.71852L5.18461 9.08579L4.99139 8.49127L5.49722 8.12401H4.87205L4.67911 7.52945ZM4.87205 10.2696L4.67911 9.67506L4.48584 10.2696H3.86072L4.36655 10.6369L4.17328 11.2314L4.67911 10.8641L5.18461 11.2314L4.99139 10.6369L5.49722 10.2696H4.87205ZM2.23012 10.2696L2.03714 9.67506L1.84388 10.2696H1.21875L1.72458 10.6369L1.53131 11.2314L2.03714 10.8641L2.54269 11.2314L2.34947 10.6369L2.8552 10.2696H2.23012ZM2.03714 7.52945L1.84388 8.12401H1.21875L1.72458 8.49127L1.53131 9.08579L2.03714 8.71852L2.54269 9.08579L2.34947 8.49127L2.8552 8.12401H2.23012L2.03714 7.52945ZM4.67911 5.38379L4.48584 5.9784H3.86072L4.36655 6.34571L4.17328 6.94023L4.67911 6.57291L5.18461 6.94023L4.99139 6.34571L5.49722 5.9784H4.87205L4.67911 5.38379ZM2.03714 5.38379L1.84388 5.9784H1.21875L1.72458 6.34571L1.53131 6.94023L2.03714 6.57291L2.54269 6.94023L2.34947 6.34571L2.8552 5.9784H2.23012L2.03714 5.38379ZM7.32103 7.52945L7.12781 8.12401H6.50269L7.00847 8.49127L6.8153 9.08579L7.32103 8.71852L7.82662 9.08579L7.63336 8.49127L8.13919 8.12401H7.51406L7.32103 7.52945ZM7.51406 10.2696L7.32103 9.67506L7.12781 10.2696H6.50269L7.00847 10.6369L6.8153 11.2314L7.32103 10.8641L7.82662 11.2314L7.63336 10.6369L8.13919 10.2696H7.51406ZM10.156 10.2696L9.96305 9.67506L9.76978 10.2696H9.1447L9.65044 10.6369L9.45722 11.2314L9.96305 10.8641L10.4686 11.2314L10.2753 10.6369L10.7812 10.2696H10.156ZM9.96305 7.52945L9.76978 8.12401H9.1447L9.65044 8.49127L9.45722 9.08579L9.96305 8.71852L10.4686 9.08579L10.2753 8.49127L10.7812 8.12401H10.156L9.96305 7.52945ZM7.32103 5.38379L7.12781 5.9784H6.50269L7.00847 6.34571L6.8153 6.94023L7.32103 6.57291L7.82662 6.94023L7.63336 6.34571L8.13919 5.9784H7.51406L7.32103 5.38379ZM9.96305 5.38379L9.76978 5.9784H9.1447L9.65044 6.34571L9.45722 6.94023L9.96305 6.57291L10.4686 6.94023L10.2753 6.34571L10.7812 5.9784H10.156L9.96305 5.38379Z" fill="#F0F0F0"/>
</svg>
