<svg width="640" height="640" viewBox="0 0 640 640" fill="none" xmlns="http://www.w3.org/2000/svg">
<g clip-path="url(#clip0_859_13988)">
<path d="M546.28 302.186C671.243 379.467 671.243 504.758 546.28 582.039C421.317 659.32 218.701 659.32 93.7378 582.039C-31.2251 504.758 -31.2251 379.467 93.7378 302.186C218.701 224.904 421.317 224.904 546.28 302.186Z" fill="#F0F0F0"/>
<path d="M331.8 475.587C374.899 502.24 374.899 545.449 331.8 572.087C288.701 598.725 218.831 598.74 175.746 572.087C132.647 545.434 132.647 502.225 175.746 475.587C218.844 448.934 288.715 448.934 331.8 475.587Z" fill="#E0E0E0"/>
<path d="M567.586 438.459L554.641 430.458C554.641 430.458 551.477 400.779 553.582 377.792C556.543 345.495 576.021 306.621 599.261 315.758C622.502 324.88 588.612 357.774 581.06 385.183C573.522 412.577 567.586 438.474 567.586 438.474V438.459Z" fill="#0ED962"/>
<path opacity="0.15" d="M567.586 438.459L554.641 430.458C554.641 430.458 551.477 400.779 553.582 377.792C556.543 345.495 576.021 306.621 599.261 315.758C622.502 324.88 588.612 357.774 581.06 385.183C573.522 412.577 567.586 438.474 567.586 438.474V438.459Z" fill="black"/>
<path d="M560.78 435.099H560.807C561.242 435.085 561.582 434.692 561.568 434.226C559.3 362.459 592.646 326.35 592.985 326.001C593.298 325.681 593.298 325.142 592.985 324.808C592.673 324.473 592.184 324.473 591.872 324.808C591.532 325.171 557.683 361.79 559.979 434.285C559.992 434.736 560.346 435.099 560.767 435.099H560.78Z" fill="white"/>
<path d="M575.722 443.449L566.513 437.76C566.513 437.76 564.951 417.393 574.268 392.646C582.391 371.099 602.521 353.234 612.654 356.988C622.787 360.741 622.529 368.437 617.598 376.511C612.654 384.586 582.622 403.819 575.722 443.449Z" fill="#0ED962"/>
<path d="M570.859 441.296C571.293 441.296 571.646 440.918 571.633 440.452C571.456 395.076 611.227 364.408 611.635 364.102C611.988 363.84 612.069 363.316 611.825 362.938C611.58 362.56 611.091 362.473 610.738 362.735C610.331 363.04 569.894 394.217 570.071 440.467C570.071 440.932 570.424 441.296 570.859 441.296Z" fill="white"/>
<path d="M88.623 420.638L100.576 411.996C100.576 411.996 105.833 378.462 100.943 349.016C94.0697 307.611 67.4064 293.834 57.8984 298.155C48.3904 302.476 46.3529 314.827 64.1058 338.468C74.5782 352.42 88.2562 382.07 88.623 420.623V420.638Z" fill="#0ED962"/>
<g opacity="0.15">
<path d="M88.623 420.638L100.576 411.996C100.576 411.996 105.833 378.462 100.943 349.016C94.0697 307.611 67.4064 293.834 57.8984 298.155C48.3904 302.476 46.3529 314.827 64.1058 338.468C74.5782 352.42 88.2562 382.07 88.623 420.623V420.638Z" fill="black"/>
</g>
<path d="M92.7265 404.053C92.7265 404.053 92.645 404.053 92.6043 404.053C92.1289 403.995 91.7893 403.53 91.8436 403.02C96.163 364.031 80.7871 321.738 64.0801 304.906C63.727 304.557 63.7134 303.975 64.0394 303.596C64.3654 303.233 64.9087 303.204 65.2619 303.553C82.2813 320.691 97.9424 363.682 93.5551 403.239C93.5007 403.704 93.134 404.053 92.7129 404.053H92.7265Z" fill="white"/>
<path d="M57.3308 443.245C55.4292 444.467 49.8874 440.059 48.3525 438.997C45.731 437.193 43.5849 434.589 42.1315 431.636C40.4472 428.202 39.9718 424.478 40.4065 420.637C40.6374 418.644 41.1264 416.694 41.6018 414.745C42.0772 412.839 42.5526 410.933 43.028 409.013C43.5034 407.136 43.9652 405.187 43.7071 403.252C43.1774 399.367 39.8903 396.705 36.9157 394.406C33.6286 391.875 30.1786 388.5 30.1106 383.815C30.0563 380.192 31.7542 376.803 33.7916 373.922C35.8291 371.041 38.274 368.481 40.1077 365.44C41.4252 363.258 42.4439 360.697 42.1859 358.108C42.0229 356.493 41.3709 354.994 40.6238 353.583C39.021 350.557 36.9293 347.808 35.8019 344.549C34.6745 341.29 34.756 337.202 37.1058 334.816C39.0346 332.852 41.9414 332.517 44.6036 332.648C47.0621 332.764 49.4799 333.914 51.6532 335.15C58.6755 339.151 62.8047 347.88 70.2346 350.921C73.1006 352.085 76.2247 352.288 79.1993 353.074C82.174 353.845 85.2301 355.416 86.6563 358.326C89.468 364.058 84.5781 371.303 86.5884 377.414C88.3678 382.826 93.3391 384.804 96.2051 389.649C97.4548 391.773 97.7807 394.246 97.6313 396.748C97.3733 400.982 96.8571 404.095 95.0506 408.838C93.5565 412.752 89.1148 420.288 89.1148 420.288C89.1148 420.288 57.6161 443.071 57.3172 443.26L57.3308 443.245Z" fill="#0ED962"/>
<path d="M75.6943 431.185H75.6672C75.1782 431.185 74.7979 430.748 74.8114 430.239C75.5721 393.403 58.6613 353.118 46.6676 341.552C46.3145 341.203 46.2873 340.621 46.5997 340.243C46.9257 339.864 47.469 339.835 47.8222 340.17C60.0468 351.969 77.3107 392.922 76.5365 430.283C76.5365 430.777 76.1426 431.185 75.6807 431.185H75.6943Z" fill="white"/>
<path d="M69.3547 386.317C69.2732 386.317 69.1781 386.317 69.0966 386.273C57.9858 382.84 44.2263 382.491 44.0769 382.491C43.6015 382.491 43.2211 382.054 43.2347 381.545C43.2347 381.036 43.6015 380.628 44.1176 380.643C44.2534 380.643 58.2439 381.007 69.572 384.513C70.0338 384.658 70.2919 385.167 70.1697 385.662C70.061 386.069 69.7214 386.331 69.3547 386.331V386.317Z" fill="white"/>
<path d="M389.488 395.323L384.34 392.137C382.71 391.133 381.406 388.689 381.406 386.681V157.514C381.406 155.507 382.724 153.063 384.34 152.059L527.436 63.5751C529.066 62.5713 531.688 62.5713 533.318 63.5751L538.466 66.7613C540.096 67.7651 541.413 70.2092 541.413 72.2169V301.384C541.413 303.391 540.096 305.836 538.466 306.839L395.369 395.338C393.74 396.341 391.118 396.341 389.488 395.338V395.323Z" fill="#0C6F37"/>
<path d="M541.374 71.694C541.17 70.0646 539.934 69.4681 538.454 70.3847L395.371 158.883C394.556 159.392 393.836 160.236 393.293 161.225L382.25 154.402C382.78 153.413 383.513 152.554 384.328 152.045L527.424 63.5615C529.041 62.5576 531.676 62.5576 533.306 63.5615L538.454 66.7476C539.948 67.6641 541.184 69.8028 541.374 71.694Z" fill="#0C6F37"/>
<path d="M394.865 395.572C393.235 396.314 390.953 396.226 389.486 395.324L384.325 392.124C382.708 391.12 381.391 388.676 381.391 386.668V157.501C381.391 156.497 381.717 155.392 382.246 154.402L393.289 161.226C392.746 162.215 392.42 163.335 392.42 164.339V393.506C392.42 395.31 393.479 396.139 394.865 395.572Z" fill="#003317"/>
<path d="M392.422 164.339V393.505C392.422 395.513 393.739 396.328 395.369 395.324L538.465 306.826C540.095 305.822 541.413 303.378 541.413 301.37V72.2034C541.413 70.1957 540.095 69.381 538.465 70.3849L395.369 158.883C393.739 159.887 392.422 162.331 392.422 164.339Z" fill="#0C5B2F"/>
<path d="M359.01 251.687C357.163 250.509 348.592 245.286 348.143 245.009C346.785 244.122 346.296 241.969 347.559 240.514L381.394 201.641L392.424 208.42L358.602 247.308C357.38 248.705 357.774 250.727 359.01 251.687Z" fill="#0C6F37"/>
<path d="M392.424 208.434L358.589 247.308C356.891 249.257 358.331 252.414 360.803 252.196L392.411 249.403V208.42L392.424 208.434Z" fill="#0C5B2F"/>
<path d="M466.914 138.47C483.593 128.156 497.108 136.521 497.108 157.136C497.108 177.751 483.593 202.847 466.914 213.148C450.234 223.462 436.719 215.097 436.719 194.467C436.719 173.838 450.234 148.756 466.914 138.456V138.47Z" fill="#0ED962"/>
<path d="M466.707 154.706C472.113 151.36 476.501 154.066 476.501 160.758C476.501 167.45 472.113 175.583 466.707 178.929C461.301 182.275 456.914 179.569 456.914 172.877C456.914 166.185 461.301 158.052 466.707 154.706Z" fill="white"/>
<path d="M486.013 190.38C486.013 179.382 478.8 174.93 469.917 180.429L464.361 183.862C455.478 189.362 448.266 202.732 448.266 213.716V216.713C449.868 217.28 451.607 217.571 453.454 217.571C457.502 217.571 462.079 216.145 466.915 213.148C474.155 208.668 480.81 201.393 486.013 192.912V190.366V190.38Z" fill="white"/>
<path d="M447.791 315.279L486.054 291.623C487.684 290.619 489.002 291.434 489.002 293.442V306.637C489.002 308.645 487.684 311.089 486.054 312.093L447.791 335.749C446.161 336.752 444.844 335.938 444.844 333.93V320.735C444.844 318.727 446.161 316.283 447.778 315.279H447.791Z" fill="#0ED962"/>
<path d="M429.055 285.804L504.753 238.987C506.695 237.779 508.284 238.754 508.284 241.169V246.086C508.284 248.501 506.709 251.426 504.753 252.633L429.055 299.45C427.113 300.658 425.523 299.683 425.523 297.268V292.35C425.523 289.935 427.099 287.011 429.055 285.804Z" fill="#FAFAFA"/>
<path d="M437.917 251.919C438.949 251.279 439.75 251.192 440.321 251.628C440.891 252.079 441.177 253.068 441.177 254.611C441.177 256.153 440.891 257.506 440.321 258.684C439.75 259.848 438.949 260.75 437.917 261.39L435.879 262.656V267.355C435.879 267.515 435.839 267.66 435.771 267.821C435.703 267.981 435.621 268.082 435.526 268.141L434.494 268.781C434.399 268.839 434.317 268.839 434.249 268.766C434.181 268.693 434.141 268.592 434.141 268.432V254.829C434.141 254.669 434.181 254.523 434.249 254.363C434.317 254.203 434.399 254.101 434.494 254.043L437.917 251.919ZM435.879 260.023L437.862 258.801C438.351 258.495 438.732 258.102 439.03 257.608C439.316 257.113 439.465 256.473 439.465 255.687C439.465 254.902 439.316 254.451 439.03 254.32C438.745 254.203 438.351 254.29 437.862 254.581L435.879 255.804V260.023Z" fill="#FAFAFA"/>
<path d="M446.867 246.376C447.003 246.289 447.112 246.289 447.18 246.376C447.248 246.449 447.302 246.594 447.356 246.798L450.48 258.175C450.48 258.175 450.48 258.262 450.48 258.32C450.48 258.48 450.44 258.626 450.372 258.786C450.304 258.946 450.222 259.048 450.127 259.106L449.204 259.673C449.041 259.775 448.918 259.79 448.851 259.717C448.783 259.644 448.742 259.557 448.715 259.455L448.171 257.462L444.137 259.964L443.594 262.641C443.567 262.772 443.526 262.918 443.458 263.078C443.39 263.238 443.268 263.369 443.105 263.485L442.181 264.052C442.086 264.111 442.005 264.111 441.937 264.038C441.869 263.965 441.828 263.863 441.828 263.703C441.828 263.645 441.828 263.601 441.828 263.543L444.952 248.296C445.007 248.02 445.061 247.816 445.129 247.642C445.197 247.482 445.292 247.351 445.441 247.278L446.84 246.405L446.867 246.376ZM447.574 255.192L446.175 250.057L444.776 256.924L447.587 255.192H447.574Z" fill="#FAFAFA"/>
<path d="M455.252 240.994C455.822 240.645 456.325 240.456 456.759 240.441C457.194 240.426 457.561 240.514 457.846 240.717C458.131 240.921 458.349 241.198 458.498 241.561C458.647 241.925 458.729 242.303 458.742 242.696C458.742 242.856 458.715 243.016 458.647 243.162C458.579 243.307 458.484 243.409 458.403 243.467L457.506 244.02C457.357 244.107 457.248 244.136 457.18 244.078C457.112 244.034 457.045 243.947 456.977 243.831C456.854 243.554 456.651 243.365 456.393 243.278C456.135 243.176 455.741 243.278 455.238 243.598C455.021 243.729 454.803 243.904 454.613 244.107C454.41 244.311 454.233 244.529 454.084 244.762C453.934 244.995 453.812 245.257 453.73 245.518C453.649 245.78 453.608 246.042 453.608 246.319C453.608 246.639 453.649 246.886 453.73 247.031C453.812 247.191 453.948 247.279 454.138 247.308C454.328 247.337 454.586 247.308 454.898 247.25C455.211 247.177 455.605 247.09 456.08 246.959C456.596 246.828 457.031 246.77 457.398 246.784C457.764 246.799 458.063 246.915 458.308 247.104C458.539 247.308 458.715 247.599 458.838 247.977C458.96 248.355 459.014 248.835 459.014 249.403C459.014 250.028 458.933 250.669 458.756 251.323C458.593 251.963 458.349 252.589 458.023 253.156C457.71 253.738 457.316 254.277 456.854 254.786C456.393 255.295 455.876 255.731 455.306 256.081C454.831 256.372 454.369 256.561 453.934 256.633C453.499 256.706 453.119 256.677 452.78 256.532C452.44 256.386 452.168 256.11 451.965 255.731C451.761 255.353 451.652 254.859 451.625 254.262C451.625 254.102 451.652 253.942 451.72 253.796C451.788 253.651 451.869 253.549 451.965 253.491L452.861 252.938C453.01 252.851 453.119 252.822 453.187 252.865C453.269 252.909 453.323 252.996 453.377 253.127C453.432 253.273 453.513 253.418 453.595 253.549C453.676 253.68 453.798 253.767 453.934 253.826C454.084 253.884 454.26 253.884 454.477 253.826C454.695 253.782 454.966 253.666 455.292 253.462C455.55 253.302 455.795 253.127 456.039 252.909C456.27 252.705 456.488 252.458 456.664 252.211C456.841 251.949 456.99 251.687 457.099 251.396C457.208 251.105 457.262 250.799 457.262 250.479C457.262 250.174 457.208 249.956 457.085 249.839C456.963 249.708 456.787 249.665 456.542 249.665C456.298 249.665 455.999 249.723 455.646 249.825C455.292 249.912 454.871 250.014 454.41 250.101C453.988 250.203 453.608 250.232 453.296 250.188C452.97 250.159 452.712 250.028 452.508 249.825C452.304 249.621 452.141 249.316 452.046 248.923C451.951 248.53 451.897 248.021 451.897 247.381C451.897 246.74 451.978 246.115 452.155 245.475C452.318 244.835 452.562 244.238 452.861 243.671C453.16 243.103 453.513 242.594 453.934 242.114C454.342 241.634 454.79 241.256 455.265 240.965L455.252 240.994Z" fill="#FAFAFA"/>
<path d="M464.174 235.48C464.744 235.131 465.247 234.942 465.681 234.927C466.116 234.913 466.483 235 466.768 235.204C467.053 235.407 467.27 235.684 467.42 236.048C467.569 236.411 467.651 236.79 467.664 237.182C467.664 237.342 467.637 237.502 467.569 237.648C467.501 237.793 467.406 237.895 467.325 237.953L466.428 238.506C466.279 238.594 466.17 238.623 466.102 238.564C466.034 238.521 465.966 238.434 465.899 238.317C465.776 238.041 465.573 237.852 465.314 237.764C465.056 237.662 464.676 237.764 464.16 238.084C463.943 238.215 463.725 238.39 463.535 238.594C463.331 238.797 463.155 239.015 463.005 239.248C462.856 239.481 462.734 239.743 462.652 240.005C462.571 240.267 462.53 240.528 462.53 240.805C462.53 241.125 462.571 241.372 462.652 241.518C462.734 241.678 462.87 241.765 463.06 241.794C463.25 241.823 463.508 241.794 463.82 241.736C464.133 241.663 464.527 241.576 465.002 241.445C465.518 241.314 465.953 241.256 466.32 241.27C466.686 241.285 466.999 241.387 467.23 241.591C467.461 241.794 467.637 242.085 467.759 242.463C467.868 242.842 467.936 243.322 467.936 243.889C467.936 244.515 467.854 245.155 467.678 245.81C467.515 246.45 467.27 247.075 466.944 247.643C466.632 248.225 466.238 248.763 465.776 249.272C465.314 249.781 464.798 250.218 464.228 250.567C463.752 250.858 463.291 251.047 462.856 251.134C462.421 251.207 462.041 251.178 461.701 251.032C461.362 250.887 461.09 250.625 460.886 250.232C460.683 249.854 460.56 249.359 460.547 248.763C460.547 248.603 460.574 248.443 460.642 248.297C460.71 248.152 460.791 248.05 460.886 247.992L461.783 247.439C461.932 247.352 462.041 247.323 462.109 247.366C462.19 247.395 462.245 247.483 462.299 247.628C462.353 247.774 462.435 247.919 462.516 248.05C462.598 248.181 462.72 248.268 462.856 248.326C463.005 248.385 463.182 248.385 463.399 248.326C463.617 248.283 463.888 248.166 464.214 247.963C464.472 247.803 464.717 247.628 464.948 247.41C465.179 247.206 465.396 246.973 465.573 246.712C465.749 246.45 465.899 246.188 466.007 245.897C466.116 245.606 466.17 245.3 466.17 244.98C466.17 244.66 466.116 244.457 465.994 244.326C465.871 244.209 465.695 244.151 465.45 244.151C465.206 244.151 464.907 244.209 464.554 244.311C464.201 244.413 463.78 244.5 463.318 244.587C462.897 244.675 462.516 244.718 462.204 244.675C461.892 244.646 461.62 244.515 461.416 244.311C461.212 244.107 461.049 243.802 460.954 243.409C460.846 243.016 460.805 242.507 460.805 241.867C460.805 241.227 460.886 240.601 461.063 239.961C461.226 239.321 461.471 238.724 461.769 238.157C462.068 237.59 462.421 237.081 462.842 236.6C463.263 236.12 463.698 235.742 464.174 235.451V235.48Z" fill="#FAFAFA"/>
<path d="M474.071 237.298L472.971 244.282C472.93 244.515 472.876 244.718 472.808 244.893C472.74 245.067 472.645 245.198 472.523 245.271L471.49 245.911C471.368 245.984 471.259 245.984 471.191 245.897C471.123 245.809 471.069 245.664 471.042 245.475L469.398 233.196C469.398 233.196 469.398 233.079 469.398 233.036C469.398 232.876 469.439 232.73 469.507 232.57C469.575 232.41 469.657 232.308 469.752 232.25L470.702 231.668C470.784 231.61 470.865 231.61 470.947 231.639C471.028 231.683 471.069 231.785 471.096 231.988L472.169 240.252L473.12 234.04C473.134 233.923 473.175 233.778 473.242 233.589C473.31 233.4 473.419 233.254 473.568 233.152L474.614 232.498C474.764 232.396 474.872 232.41 474.94 232.527C475.008 232.643 475.049 232.745 475.063 232.832L476.013 237.866L477.086 228.278C477.114 228.046 477.168 227.871 477.236 227.74C477.317 227.609 477.399 227.522 477.48 227.464L478.431 226.882C478.526 226.824 478.608 226.824 478.676 226.896C478.744 226.969 478.784 227.071 478.784 227.231C478.784 227.275 478.784 227.333 478.784 227.406L477.154 241.707C477.127 241.939 477.086 242.129 477.005 242.318C476.937 242.492 476.828 242.623 476.706 242.711L475.674 243.351C475.552 243.423 475.443 243.423 475.389 243.336C475.321 243.234 475.266 243.103 475.226 242.914L474.125 237.298H474.071Z" fill="#FAFAFA"/>
<path d="M480.43 231.129C480.457 230.329 480.552 229.529 480.701 228.743C480.851 227.958 481.095 227.201 481.394 226.503C481.693 225.805 482.087 225.15 482.549 224.568C483.01 223.986 483.554 223.491 484.192 223.099C484.817 222.72 485.36 222.531 485.809 222.531C486.27 222.531 486.651 222.706 486.963 223.04C487.275 223.375 487.506 223.826 487.669 224.423C487.832 225.019 487.927 225.703 487.955 226.488C487.955 226.75 487.968 227.041 487.968 227.361C487.968 227.681 487.968 228.016 487.968 228.351C487.968 228.685 487.968 229.034 487.968 229.354C487.968 229.675 487.968 229.98 487.955 230.256C487.927 231.057 487.832 231.857 487.683 232.642C487.52 233.428 487.289 234.185 486.99 234.883C486.691 235.581 486.297 236.221 485.836 236.803C485.374 237.385 484.831 237.865 484.206 238.258C483.581 238.651 483.024 238.84 482.562 238.825C482.1 238.825 481.72 238.651 481.408 238.331C481.095 238.011 480.864 237.545 480.715 236.949C480.552 236.352 480.47 235.668 480.443 234.897C480.443 234.636 480.43 234.345 480.43 234.025C480.43 233.704 480.43 233.37 480.43 233.035C480.43 232.701 480.43 232.351 480.43 232.031C480.43 231.711 480.43 231.406 480.443 231.129H480.43ZM486.216 227.652C486.175 226.663 485.985 226.008 485.618 225.674C485.252 225.339 484.776 225.368 484.179 225.732C483.581 226.096 483.105 226.678 482.739 227.449C482.372 228.234 482.182 229.136 482.141 230.169C482.128 230.707 482.114 231.318 482.114 231.973C482.114 232.628 482.114 233.21 482.141 233.734C482.168 234.723 482.372 235.377 482.739 235.698C483.105 236.018 483.581 236.003 484.179 235.625C484.776 235.261 485.252 234.679 485.618 233.923C485.985 233.152 486.175 232.25 486.216 231.217C486.23 230.678 486.243 230.067 486.243 229.427C486.243 228.787 486.243 228.191 486.216 227.667V227.652Z" fill="#FAFAFA"/>
<path d="M493.904 217.294C494.963 216.64 495.778 216.538 496.335 217.018C496.892 217.498 497.164 218.444 497.164 219.898C497.164 220.931 497.028 221.892 496.743 222.779C496.457 223.681 496.036 224.481 495.479 225.165L497.245 229.282C497.245 229.282 497.286 229.413 497.286 229.486C497.286 229.617 497.259 229.733 497.204 229.864C497.15 229.995 497.082 230.068 497.001 230.126L495.914 230.795C495.751 230.897 495.615 230.912 495.534 230.824C495.452 230.737 495.398 230.65 495.357 230.562L493.686 226.693L491.989 227.74V232.643C491.989 232.803 491.948 232.948 491.88 233.108C491.812 233.268 491.731 233.37 491.635 233.429L490.603 234.069C490.508 234.127 490.427 234.127 490.359 234.054C490.291 233.981 490.25 233.88 490.25 233.719V220.117C490.25 219.957 490.277 219.811 490.359 219.651C490.427 219.491 490.508 219.389 490.603 219.331L493.904 217.294ZM491.989 225.121L493.836 223.972C494.325 223.667 494.705 223.288 495.004 222.837C495.289 222.372 495.439 221.761 495.439 220.961C495.439 220.16 495.289 219.738 495.004 219.651C494.719 219.564 494.325 219.666 493.836 219.971L491.989 221.121V225.121Z" fill="#FAFAFA"/>
<path d="M502.967 211.693C503.592 211.3 504.149 211.097 504.611 211.082C505.073 211.082 505.467 211.213 505.779 211.533C506.091 211.839 506.322 212.304 506.499 212.93C506.662 213.541 506.771 214.283 506.798 215.141C506.838 216.159 506.838 217.192 506.798 218.254C506.757 219.156 506.662 220.029 506.499 220.844C506.336 221.659 506.091 222.415 505.793 223.114C505.48 223.812 505.1 224.437 504.652 224.99C504.19 225.543 503.66 226.009 503.049 226.387L499.83 228.38C499.735 228.438 499.653 228.438 499.585 228.366C499.517 228.293 499.477 228.191 499.477 228.031V214.428C499.477 214.268 499.517 214.123 499.585 213.963C499.653 213.803 499.735 213.701 499.83 213.643L502.981 211.693H502.967ZM505.059 216.218C505.046 215.781 504.991 215.388 504.896 215.068C504.801 214.734 504.679 214.486 504.502 214.297C504.326 214.123 504.108 214.035 503.85 214.035C503.579 214.035 503.266 214.152 502.899 214.385L501.188 215.447V224.932L502.967 223.841C503.321 223.623 503.619 223.361 503.877 223.041C504.135 222.721 504.339 222.372 504.516 221.979C504.679 221.586 504.815 221.179 504.91 220.728C505.005 220.277 505.046 219.826 505.073 219.36C505.1 218.298 505.1 217.265 505.073 216.247L505.059 216.218Z" fill="#FAFAFA"/>
<path d="M316.44 0.552848C318.817 1.12024 321.058 2.02224 323.15 3.25886C325.255 4.49547 327.035 6.00851 328.488 7.79797C329.941 9.58742 331.001 11.6242 331.639 13.9083C332.278 16.1924 332.332 18.6511 331.775 21.2989C331.327 23.4666 330.62 25.2706 329.67 26.7109C328.705 28.1512 327.605 29.4024 326.355 30.4353C325.106 31.4683 323.788 32.3848 322.416 33.1559C321.031 33.9415 319.727 34.6835 318.504 35.3818C317.268 36.0801 316.155 36.8512 315.163 37.695C314.172 38.5388 313.465 39.5426 313.071 40.692C312.84 41.2594 312.514 41.7249 312.066 42.0741C311.618 42.4232 311.129 42.5251 310.572 42.3941L304.813 41.0266C304.256 40.8956 303.808 40.561 303.468 40.0227C303.129 39.4844 303.047 38.9316 303.224 38.3497C303.767 36.2692 304.555 34.5089 305.628 33.0831C306.687 31.6574 307.869 30.4353 309.173 29.4169C310.477 28.3985 311.822 27.5111 313.221 26.7546C314.62 26.0126 315.924 25.2852 317.133 24.5723C318.341 23.8594 319.36 23.1175 320.216 22.3319C321.072 21.5462 321.615 20.5715 321.846 19.4367C322.267 17.3854 321.819 15.4941 320.474 13.7919C319.129 12.0898 317.119 10.9113 314.443 10.2712C310.151 9.25281 306.524 10.8095 303.55 14.9267C303.169 15.465 302.816 15.8432 302.477 16.076C302.137 16.3088 301.634 16.3524 300.983 16.1924L294.843 14.7376C294.395 14.6357 294.028 14.3739 293.77 13.9665C293.512 13.5591 293.43 13.0936 293.539 12.5553C293.974 10.6786 294.925 8.87455 296.364 7.14329C297.804 5.41202 299.57 3.95718 301.635 2.77876C303.713 1.60034 306.022 0.771075 308.589 0.305525C311.156 -0.160025 313.764 -0.0872826 316.44 0.552848ZM309.934 47.3551C310.491 47.4861 310.925 47.8207 311.238 48.3444C311.55 48.8682 311.645 49.4356 311.523 50.0321L310.042 57.1753C309.92 57.7718 309.608 58.2374 309.119 58.572C308.63 58.9066 308.1 59.0084 307.543 58.8775L301.023 57.3354C300.466 57.2044 300.032 56.8698 299.719 56.3461C299.407 55.8223 299.312 55.2549 299.434 54.6585L300.915 47.5152C301.037 46.9187 301.349 46.4531 301.838 46.1185C302.327 45.7839 302.857 45.6821 303.414 45.813L309.934 47.3551Z" fill="#0ED962"/>
<path d="M323.692 68.7988C325.35 68.5078 326.993 68.4642 328.637 68.6824C330.28 68.9006 331.788 69.3807 333.146 70.1227C334.504 70.8792 335.673 71.8976 336.623 73.1778C337.588 74.4581 338.199 76.0293 338.484 77.877C338.715 79.39 338.688 80.743 338.416 81.936C338.145 83.129 337.737 84.2201 337.18 85.2385C336.623 86.2423 335.999 87.188 335.306 88.0609C334.613 88.9338 333.947 89.7631 333.323 90.5632C332.698 91.3488 332.168 92.149 331.733 92.9637C331.299 93.7784 331.095 94.6077 331.109 95.4515C331.109 95.888 331 96.2662 330.796 96.6154C330.593 96.9645 330.294 97.1682 329.913 97.2409L325.893 97.9393C325.499 98.012 325.132 97.9102 324.793 97.6629C324.453 97.4155 324.263 97.0809 324.236 96.659C324.086 95.1751 324.181 93.8366 324.521 92.6291C324.861 91.4216 325.322 90.3159 325.906 89.2975C326.49 88.2791 327.142 87.348 327.862 86.4897C328.582 85.6313 329.248 84.802 329.845 84.0164C330.443 83.2308 330.932 82.4743 331.285 81.7323C331.638 80.9904 331.761 80.2193 331.638 79.4337C331.421 78.0079 330.674 76.9168 329.411 76.1894C328.148 75.462 326.572 75.2583 324.711 75.5929C321.723 76.1166 319.753 78.1098 318.843 81.5577C318.735 82.0087 318.599 82.3434 318.436 82.5907C318.273 82.838 317.96 82.998 317.512 83.0708L313.234 83.8273C312.921 83.8855 312.622 83.8273 312.364 83.6382C312.106 83.449 311.943 83.1726 311.889 82.7944C311.726 81.4705 311.889 80.0593 312.405 78.5462C312.921 77.0477 313.695 75.622 314.741 74.2981C315.787 72.9742 317.078 71.8103 318.599 70.8065C320.134 69.8026 321.832 69.1334 323.692 68.8133V68.7988ZM330.701 100.573C331.095 100.5 331.448 100.602 331.774 100.849C332.1 101.096 332.29 101.431 332.358 101.853L333.119 106.843C333.187 107.265 333.092 107.643 332.861 107.992C332.63 108.341 332.318 108.545 331.924 108.618L327.373 109.418C326.979 109.491 326.626 109.389 326.3 109.142C325.974 108.894 325.771 108.56 325.716 108.138L324.956 103.148C324.888 102.74 324.983 102.347 325.214 101.998C325.445 101.649 325.757 101.431 326.151 101.373L330.701 100.573Z" fill="#0ED962"/>
<g opacity="0.2">
<path d="M323.692 68.7988C325.35 68.5078 326.993 68.4642 328.637 68.6824C330.28 68.9006 331.788 69.3807 333.146 70.1227C334.504 70.8792 335.673 71.8976 336.623 73.1778C337.588 74.4581 338.199 76.0293 338.484 77.877C338.715 79.39 338.688 80.743 338.416 81.936C338.145 83.129 337.737 84.2201 337.18 85.2385C336.623 86.2423 335.999 87.188 335.306 88.0609C334.613 88.9338 333.947 89.7631 333.323 90.5632C332.698 91.3488 332.168 92.149 331.733 92.9637C331.299 93.7784 331.095 94.6077 331.109 95.4515C331.109 95.888 331 96.2662 330.796 96.6154C330.593 96.9645 330.294 97.1682 329.913 97.2409L325.893 97.9393C325.499 98.012 325.132 97.9102 324.793 97.6629C324.453 97.4155 324.263 97.0809 324.236 96.659C324.086 95.1751 324.181 93.8366 324.521 92.6291C324.861 91.4216 325.322 90.3159 325.906 89.2975C326.49 88.2791 327.142 87.348 327.862 86.4897C328.582 85.6313 329.248 84.802 329.845 84.0164C330.443 83.2308 330.932 82.4743 331.285 81.7323C331.638 80.9904 331.761 80.2193 331.638 79.4337C331.421 78.0079 330.674 76.9168 329.411 76.1894C328.148 75.462 326.572 75.2583 324.711 75.5929C321.723 76.1166 319.753 78.1098 318.843 81.5577C318.735 82.0087 318.599 82.3434 318.436 82.5907C318.273 82.838 317.96 82.998 317.512 83.0708L313.234 83.8273C312.921 83.8855 312.622 83.8273 312.364 83.6382C312.106 83.449 311.943 83.1726 311.889 82.7944C311.726 81.4705 311.889 80.0593 312.405 78.5462C312.921 77.0477 313.695 75.622 314.741 74.2981C315.787 72.9742 317.078 71.8103 318.599 70.8065C320.134 69.8026 321.832 69.1334 323.692 68.8133V68.7988ZM330.701 100.573C331.095 100.5 331.448 100.602 331.774 100.849C332.1 101.096 332.29 101.431 332.358 101.853L333.119 106.843C333.187 107.265 333.092 107.643 332.861 107.992C332.63 108.341 332.318 108.545 331.924 108.618L327.373 109.418C326.979 109.491 326.626 109.389 326.3 109.142C325.974 108.894 325.771 108.56 325.716 108.138L324.956 103.148C324.888 102.74 324.983 102.347 325.214 101.998C325.445 101.649 325.757 101.431 326.151 101.373L330.701 100.573Z" fill="black"/>
</g>
<path d="M362.089 76.6274C362.47 76.9184 362.701 77.3112 362.782 77.8204C362.864 78.3296 362.768 78.7806 362.497 79.1879L359.264 84.0617C358.992 84.469 358.626 84.7163 358.15 84.8036C357.675 84.8909 357.254 84.7891 356.873 84.4981L352.432 81.1083C352.052 80.8174 351.821 80.4246 351.739 79.9154C351.658 79.4062 351.753 78.9552 352.024 78.5478L355.257 73.6741C355.529 73.2667 355.896 73.0194 356.371 72.9321C356.846 72.8448 357.267 72.9467 357.648 73.2376L362.089 76.6274ZM380.902 43.5879C382.518 44.8245 383.944 46.2648 385.153 47.9088C386.362 49.5528 387.258 51.2986 387.829 53.1462C388.399 54.9939 388.576 56.8852 388.386 58.8201C388.196 60.7551 387.489 62.6318 386.294 64.4358C385.316 65.9198 384.243 67.04 383.089 67.7965C381.934 68.553 380.739 69.1204 379.489 69.4696C378.239 69.8333 376.976 70.0661 375.713 70.1825C374.436 70.2988 373.241 70.4152 372.1 70.5171C370.959 70.6189 369.9 70.8226 368.894 71.1281C367.889 71.4191 367.074 71.9428 366.436 72.6702C366.096 73.0194 365.702 73.2522 365.268 73.3686C364.833 73.485 364.426 73.3977 364.045 73.1067L360.12 70.1097C359.74 69.8187 359.495 69.4114 359.4 68.9022C359.305 68.3785 359.4 67.942 359.712 67.5492C360.745 66.1671 361.858 65.1196 363.081 64.4067C364.303 63.6939 365.553 63.1847 366.843 62.85C368.12 62.5154 369.411 62.3118 370.687 62.2245C371.964 62.1372 373.159 62.0353 374.273 61.919C375.387 61.8026 376.392 61.5843 377.261 61.2788C378.131 60.9733 378.837 60.435 379.353 59.6639C380.29 58.2673 380.494 56.6815 379.992 54.9357C379.489 53.1899 378.321 51.6187 376.501 50.2366C373.567 48.0106 370.375 47.9379 366.911 50.0183C366.463 50.2948 366.083 50.4548 365.757 50.513C365.431 50.5712 365.05 50.4257 364.602 50.0911L360.405 46.905C360.093 46.6722 359.902 46.3521 359.821 45.9593C359.74 45.5665 359.821 45.1883 360.079 44.81C360.976 43.5443 362.212 42.4968 363.814 41.6966C365.417 40.8819 367.169 40.3873 369.085 40.2127C371 40.0236 372.983 40.1981 375.061 40.7219C377.126 41.2456 379.082 42.1913 380.902 43.5879Z" fill="#0ED962"/>
<g opacity="0.6">
<path d="M362.089 76.6274C362.47 76.9184 362.701 77.3112 362.782 77.8204C362.864 78.3296 362.768 78.7806 362.497 79.1879L359.264 84.0617C358.992 84.469 358.626 84.7163 358.15 84.8036C357.675 84.8909 357.254 84.7891 356.873 84.4981L352.432 81.1083C352.052 80.8174 351.821 80.4246 351.739 79.9154C351.658 79.4062 351.753 78.9552 352.024 78.5478L355.257 73.6741C355.529 73.2667 355.896 73.0194 356.371 72.9321C356.846 72.8448 357.267 72.9467 357.648 73.2376L362.089 76.6274ZM380.902 43.5879C382.518 44.8245 383.944 46.2648 385.153 47.9088C386.362 49.5528 387.258 51.2986 387.829 53.1462C388.399 54.9939 388.576 56.8852 388.386 58.8201C388.196 60.7551 387.489 62.6318 386.294 64.4358C385.316 65.9198 384.243 67.04 383.089 67.7965C381.934 68.553 380.739 69.1204 379.489 69.4696C378.239 69.8333 376.976 70.0661 375.713 70.1825C374.436 70.2988 373.241 70.4152 372.1 70.5171C370.959 70.6189 369.9 70.8226 368.894 71.1281C367.889 71.4191 367.074 71.9428 366.436 72.6702C366.096 73.0194 365.702 73.2522 365.268 73.3686C364.833 73.485 364.426 73.3977 364.045 73.1067L360.12 70.1097C359.74 69.8187 359.495 69.4114 359.4 68.9022C359.305 68.3785 359.4 67.942 359.712 67.5492C360.745 66.1671 361.858 65.1196 363.081 64.4067C364.303 63.6939 365.553 63.1847 366.843 62.85C368.12 62.5154 369.411 62.3118 370.687 62.2245C371.964 62.1372 373.159 62.0353 374.273 61.919C375.387 61.8026 376.392 61.5843 377.261 61.2788C378.131 60.9733 378.837 60.435 379.353 59.6639C380.29 58.2673 380.494 56.6815 379.992 54.9357C379.489 53.1899 378.321 51.6187 376.501 50.2366C373.567 48.0106 370.375 47.9379 366.911 50.0183C366.463 50.2948 366.083 50.4548 365.757 50.513C365.431 50.5712 365.05 50.4257 364.602 50.0911L360.405 46.905C360.093 46.6722 359.902 46.3521 359.821 45.9593C359.74 45.5665 359.821 45.1883 360.079 44.81C360.976 43.5443 362.212 42.4968 363.814 41.6966C365.417 40.8819 367.169 40.3873 369.085 40.2127C371 40.0236 372.983 40.1981 375.061 40.7219C377.126 41.2456 379.082 42.1913 380.902 43.5879Z" fill="white"/>
</g>
<path d="M260.955 205.409H212.695V80.1761C212.695 57.5242 229.837 39.1641 250.986 39.1641H255.441C276.589 39.1641 293.731 57.5242 293.731 80.1761V170.304C293.731 189.697 279.061 205.409 260.955 205.409Z" fill="#003317"/>
<path d="M208.004 506.896C207.61 510.039 206.768 513.72 206.605 522.609C206.442 532.153 204.799 535.542 204.581 543.369C204.337 552.317 205.777 555.663 209.172 560.697C212.568 565.73 221.465 570.284 225.214 561.788C229.017 553.19 228.487 547.719 227.292 538.947C226.042 529.868 225.893 524.864 225.173 517.939C224.535 511.843 223.774 507.202 223.774 507.202L208.004 506.896Z" fill="#003317"/>
<path d="M233.292 443.509L203.953 442.941C204.388 463.92 207.498 487.212 208.014 506.896C208.11 510.606 207.933 535.688 209.237 543.311C211.193 554.761 223.893 553.219 224.572 546.366C225.251 539.514 223.757 510.213 223.798 507.202C223.689 494.574 229.204 473.26 232.111 450.594C232.246 449.474 233.184 444.585 233.319 443.509H233.292Z" fill="#FFA8A7"/>
<path d="M270.979 490.571C270.979 490.571 269.824 489.902 269.58 491.226C269.295 492.797 268.874 496.056 268.262 498.631C267.407 502.225 266.714 508.146 267.217 511.07C267.719 513.994 274.103 517.777 278.246 519.13C284.358 521.138 288.542 524.411 291.883 527.786C295.985 531.918 304.828 535.817 310.858 535.773C317.99 535.715 322.961 533.227 325.311 529.139C327.769 524.877 323.165 524.557 315.028 518.897C313.181 517.617 311.076 516.162 308.699 514.504C295.795 505.469 291.068 500.639 287.414 491.604L270.993 490.557L270.979 490.571Z" fill="#003317"/>
<path d="M287.511 484.986C287.294 478.482 291.45 423.373 291.45 423.373L263.578 436.976C269.541 475.122 270.818 484.127 270.926 490.369C270.886 490.514 270.763 491.038 270.763 491.969C270.791 499.374 278.601 503.375 284.686 508.321C287.09 510.271 294.085 516.032 301.162 519.844C305.59 522.23 314.582 522.448 315.696 519.393C308.28 513.326 297.495 504.248 291.6 497.337C288.788 494.035 287.715 491.489 287.498 484.986H287.511Z" fill="#FFA8A7"/>
<path d="M215.97 238.797C205.267 263.966 205.267 283.417 207.046 315.525C208.663 344.971 211.257 370.911 211.257 370.911C210.836 376.134 204.058 386.333 203.189 409.435C202.374 431.025 204.574 458.478 204.574 458.478C204.574 458.478 219.801 467.513 231.061 458.405C231.061 458.405 241.927 402.845 245.106 375.814C247.89 352.231 252.712 322.087 252.712 322.087L262.94 375.683C262.94 375.683 259.055 388.893 258.145 398.961C256.706 414.862 265.005 446.083 265.005 446.083C265.005 446.083 280.734 451.117 290.337 441.98C290.337 441.98 293.936 391.221 295.268 372.075C297.06 346.426 293.284 277.001 290.337 240.237L215.984 238.797H215.97Z" fill="#0C6F37"/>
<path d="M252.695 322.087L256.92 281.744C256.92 281.744 275.854 279.038 284.439 270.396C284.439 270.396 278 283.039 262.122 285.498L256.01 323.047L262.923 375.698L252.695 322.102V322.087Z" fill="#003317"/>
<path d="M329.381 228.876C330.563 216.51 330.509 208.275 330.413 206.69C330.006 200.288 328.933 199.241 320.579 187.908C309.292 172.588 299.662 158.825 289.488 145.135C282.221 135.359 274.574 133.846 267.103 134.297C261.888 134.602 272.061 161.473 277.196 177.375L306.467 211.098C307.363 212.436 307.784 214.066 307.635 215.71L305.842 244.414L314.603 256.969C314.603 256.969 327.873 244.705 329.381 228.891V228.876Z" fill="#FFA8A7"/>
<path d="M238.888 135.155C233.224 135.577 222.928 136.537 222.928 136.537C216.993 140.087 215.485 142.996 214.385 151.449C213.909 155.042 216.653 164.63 219.003 178.262L223.458 203.532L222.969 216.073C220.66 223.726 215.417 233.226 210.812 247.236C233.496 260.795 252.512 261.29 269.762 258.918C282.911 257.114 289.879 253.695 292.201 250.335C291.712 236.485 290.802 227.945 290.585 213.484C290.49 207.402 290.829 201.277 291.047 194.294C299.876 186.525 299.971 173.621 295.162 165.27C283.984 145.877 273.104 133.671 265.905 134.296L238.902 135.14L238.888 135.155Z" fill="#0ED962"/>
<path opacity="0.6" d="M238.888 135.155C233.224 135.577 222.928 136.537 222.928 136.537C216.993 140.087 215.485 142.996 214.385 151.449C213.909 155.042 216.653 164.63 219.003 178.262L223.458 203.532L222.969 216.073C220.66 223.726 215.417 233.226 210.812 247.236C233.496 260.795 252.512 261.29 269.762 258.918C282.911 257.114 289.879 253.695 292.201 250.335C291.712 236.485 290.802 227.945 290.585 213.484C290.49 207.402 290.829 201.277 291.047 194.294C299.876 186.525 299.971 173.621 295.162 165.27C283.984 145.877 273.104 133.671 265.905 134.296L238.902 135.14L238.888 135.155Z" fill="white"/>
<path opacity="0.1" d="M273.483 194.513C273.483 194.513 263.119 203.126 251.302 198.63C239.485 194.135 237.76 183.078 237.76 183.078C237.76 183.078 236.511 197.554 251.411 202.486C265.795 207.243 273.483 194.513 273.483 194.513Z" fill="black"/>
<path d="M287.527 95.4231C287.079 116.431 280.722 121.625 277.53 123.109C274.338 124.607 268.185 123.691 262.208 122.629V135.228C262.208 135.228 269.108 142.967 268.592 148.743C268.063 154.533 257.753 155.174 250.011 149.514C244.36 145.397 240.326 140.683 238.56 138.443C237.922 137.628 237.569 136.61 237.569 135.548V105.883C237.569 105.883 234.295 109.593 228.496 105.345C222.709 101.112 222.22 93.1972 225.752 88.7309C228.278 85.5593 234.676 85.3265 237.759 90.273C239.484 93.8956 239.729 97.5327 241.657 96.0342C246.819 92.0479 244.048 82.9988 250.296 78.5179C250.31 78.5179 250.31 78.5033 250.323 78.5033C252.184 77.4267 254.303 76.4083 256.68 75.5354C267.804 71.4182 277.448 67.9557 279.771 59.8086C284.158 62.6019 288.07 70.6326 287.527 95.4231Z" fill="#FFA8A7"/>
<path d="M265.589 114.191C267.014 114.191 268.169 112.953 268.169 111.426C268.169 109.9 267.014 108.662 265.589 108.662C264.163 108.662 263.008 109.9 263.008 111.426C263.008 112.953 264.163 114.191 265.589 114.191Z" fill="#B16668"/>
<path d="M263.877 92.2371C263.958 93.8956 262.804 95.3068 261.31 95.3941C259.815 95.4668 258.539 94.1865 258.457 92.5135C258.376 90.855 259.53 89.4438 261.024 89.3565C262.518 89.2837 263.795 90.564 263.877 92.2371Z" fill="#003317"/>
<path d="M284.457 92.5282C284.525 94.0412 283.479 95.3215 282.121 95.3942C280.627 95.4669 279.608 94.4486 279.527 92.7755C279.459 91.2625 280.505 89.9822 281.863 89.9094C283.221 89.8367 284.389 91.0151 284.457 92.5282Z" fill="#003317"/>
<path d="M260.391 99.715C255.515 99.715 251.562 95.4669 251.562 90.2585C251.562 83.8281 257.756 83.8281 260.391 83.8281C263.026 83.8281 269.22 83.8281 269.22 90.2585C269.22 95.4814 265.254 99.715 260.391 99.715ZM260.391 85.3121C255.04 85.3121 252.948 86.6942 252.948 90.2585C252.948 94.6522 256.289 98.2311 260.391 98.2311C264.493 98.2311 267.835 94.6522 267.835 90.2585C267.835 86.7087 265.743 85.3121 260.391 85.3121Z" fill="#0C6F37"/>
<path d="M282.813 99.715C277.937 99.715 273.984 95.4669 273.984 90.2585C273.984 83.8281 280.178 83.8281 282.813 83.8281C285.448 83.8281 291.642 83.8281 291.642 90.2585C291.642 95.4814 287.676 99.715 282.813 99.715ZM282.813 85.3121C277.462 85.3121 275.37 86.6942 275.37 90.2585C275.37 94.6522 278.711 98.2311 282.813 98.2311C286.915 98.2311 290.257 94.6522 290.257 90.2585C290.257 86.7087 288.165 85.3121 282.813 85.3121Z" fill="#0C6F37"/>
<path d="M270.586 87.2031L271.021 104.879L279.7 101.999L270.586 87.2031Z" fill="#F28F8F"/>
<path d="M262.196 122.629C255.894 121.741 242.909 117.755 240.898 112.256C240.898 112.256 241.578 115.704 245.449 119.268C249.32 122.833 262.196 126.833 262.196 126.833V122.629Z" fill="#F28F8F"/>
<path d="M262.507 78.634L256.748 82.3875C255.811 80.6126 256.327 78.3285 257.916 77.2956C259.505 76.2626 261.557 76.8591 262.494 78.634H262.507Z" fill="#003317"/>
<path d="M285.935 82.8088L279.523 80.4083C280.08 78.4733 281.968 77.4404 283.734 78.0951C285.5 78.7498 286.491 80.8593 285.935 82.7942V82.8088Z" fill="#003317"/>
<path d="M268.521 91.0153C268.141 91.0153 267.828 90.6807 267.828 90.2588C267.828 89.0512 270.069 88.2656 272.066 88.2656C274.063 88.2656 275.367 89.0512 275.367 90.2588C275.367 90.6661 275.054 91.0007 274.674 91.0007C274.294 91.0007 273.981 90.6661 273.981 90.2588C273.913 90.1278 273.275 89.7641 272.066 89.7641C270.857 89.7641 269.282 90.1278 269.214 90.2733C269.214 90.6807 268.901 91.0153 268.521 91.0153Z" fill="#0C6F37"/>
<path d="M252.264 90.3739C252.264 90.3739 252.21 90.3739 252.182 90.3739L236.657 88.8608C236.372 88.5844 235.638 87.7697 234.117 87.0859L252.345 88.8899C252.726 88.9336 252.997 89.3118 252.957 89.7192C252.916 90.0975 252.617 90.3884 252.264 90.3884V90.3739Z" fill="#0C6F37"/>
<path d="M188.521 107.716C193.601 100.456 197.065 94.9567 201.697 88.73C204.332 85.1947 206.016 82.6633 208.542 79.0407C210.281 76.5384 211.3 74.4434 213.242 73.6578C215.415 72.7849 217.507 71.0682 218.906 69.497C219.911 68.3767 220.726 67.0819 221.582 65.8308C224.489 61.6408 227.952 57.9019 231.837 54.7594C235.926 51.4569 240.462 48.94 244.659 45.7976C247.159 43.9208 249.848 40.8075 246.806 37.8978C245.895 37.0249 244.741 36.5157 243.559 36.2393C236.17 34.508 229.718 37.2431 222.492 39.2217C219.354 40.08 216.258 41.1566 213.283 42.5533C211.843 43.2225 210.403 43.9645 209.208 45.0556C207.347 46.7578 206.233 49.1874 205.024 51.4715C201.778 57.6109 195.041 63.0229 190.301 67.7948C184.745 73.396 179.774 78.5316 173.431 84.7146C167.726 90.2721 162.143 95.4077 156.9 101.474C152.567 106.494 154.143 110.436 154.768 111.789C158.299 119.558 162.252 122.351 166.965 127.167C175.142 135.503 203.299 159.508 212.645 167.422C214.641 169.125 216.217 171.321 217.222 173.824L219.001 178.261C229.65 180.356 236.754 163.233 227.939 142.617C226.513 139.271 224.244 136.42 221.46 134.252C210.335 125.567 188.521 107.701 188.521 107.701V107.716Z" fill="#FFA8A7"/>
<path d="M188.52 107.715C188.52 107.715 183.712 114.611 175.508 117.317C175.508 117.317 182.299 119.179 191.604 110.232L188.534 107.715H188.52Z" fill="#F28F8F"/>
<path d="M326.607 213.702H326.648L324.909 212.101V212.13C324.515 211.796 323.904 211.694 323.116 211.912L304.263 217.411C302.511 217.921 300.623 219.827 300.025 221.66L286.456 263.603C286.143 264.578 286.266 265.319 286.7 265.741H286.687L288.48 267.4V267.371C288.874 267.72 289.485 267.836 290.286 267.604L309.139 262.104C310.891 261.595 312.78 259.689 313.377 257.856C316.039 249.607 324.284 224.162 326.946 215.913C327.286 214.88 327.109 214.109 326.607 213.702Z" fill="#0C6F37"/>
<path d="M288.174 265.188L301.744 223.245C302.341 221.412 304.229 219.506 305.982 218.997L324.848 213.497C326.601 212.988 327.538 214.065 326.94 215.898C324.278 224.147 316.033 249.592 313.371 257.841C312.773 259.674 310.885 261.58 309.133 262.089L290.28 267.588C288.528 268.098 287.59 267.021 288.188 265.188H288.174Z" fill="#0ED962"/>
<path d="M303.948 220.177C302.97 221.006 302.128 222.155 301.761 223.261L288.178 265.189C287.879 266.135 287.974 266.863 288.368 267.299L286.684 265.742H286.698C286.249 265.306 286.127 264.564 286.439 263.589L300.022 221.646C300.348 220.613 301.123 219.566 302.033 218.736L303.948 220.191V220.177Z" fill="#0C5B2F"/>
<path d="M321.429 232.819C320.097 237.096 315.357 239.948 307.574 241.927C299.791 243.905 295.472 252.765 296.721 255.457C297.984 258.148 310.562 260.65 315.601 259.879C320.641 259.108 325.707 251.31 327.228 248.895C328.75 246.48 330.529 229.633 328.913 227.32C327.296 225.007 323.887 225.37 323.887 225.37L321.429 232.819Z" fill="#F28F8F"/>
</g>
<defs>
<clipPath id="clip0_859_13988">
<rect width="640" height="640" fill="white"/>
</clipPath>
</defs>
</svg>
